<svg xmlns="http://www.w3.org/2000/svg" viewBox="0 0 32 32">
  <defs>
    <clipPath id="c"><rect width="32" height="32" rx="6"/></clipPath>
  </defs>
  <rect width="32" height="32" rx="6" fill="#0f0f18"/>
  <g clip-path="url(#c)">
    <!-- one row of seigaiha scales, centered -->
    <path d="M0,26 A16,16 0 0,1 32,26"  fill="none" stroke="#e8c060" stroke-width="1.3"/>
    <path d="M-16,26 A16,16 0 0,1 16,26" fill="none" stroke="#e8c060" stroke-width="1.3"/>
    <path d="M16,26 A16,16 0 0,1 48,26"  fill="none" stroke="#e8c060" stroke-width="1.3"/>
    <path d="M5,26 A11,11 0 0,1 27,26"   fill="none" stroke="#e8c060" stroke-width="0.8" opacity="0.6"/>
    <path d="M-11,26 A11,11 0 0,1 11,26" fill="none" stroke="#e8c060" stroke-width="0.8" opacity="0.6"/>
    <path d="M21,26 A11,11 0 0,1 43,26"  fill="none" stroke="#e8c060" stroke-width="0.8" opacity="0.6"/>
    <path d="M10,26 A6,6 0 0,1 22,26"    fill="none" stroke="#e8c060" stroke-width="0.6" opacity="0.4"/>
  </g>
</svg>
